<svg width="171" height="170" viewBox="0 0 171 170" fill="none" xmlns="http://www.w3.org/2000/svg">
<path fill-rule="evenodd" clip-rule="evenodd" d="M91.174 6.91056C91.174 10.7271 88.0607 13.8211 84.2203 13.8211C80.3803 13.8211 77.2671 10.7271 77.2671 6.91056C77.2671 3.09394 80.3803 0 84.2203 0C88.0607 0 91.174 3.09394 91.174 6.91056ZM110.641 33.1702C110.641 37.7502 106.906 41.4628 102.297 41.4628C97.6893 41.4628 93.9533 37.7502 93.9533 33.1702C93.9533 28.5902 97.6893 24.8776 102.297 24.8776C106.906 24.8776 110.641 28.5902 110.641 33.1702ZM68.9212 38.6987C71.9936 38.6987 74.484 36.2237 74.484 33.1702C74.484 30.1172 71.9936 27.6417 68.9212 27.6417C65.8492 27.6417 63.3588 30.1172 63.3588 33.1702C63.3588 36.2237 65.8492 38.6987 68.9212 38.6987ZM120.835 56.2399C126.426 63.5896 129.742 72.7435 129.742 82.6673C129.742 106.892 109.983 126.529 85.6083 126.529C61.2332 126.529 41.4737 106.892 41.4737 82.6673C41.4737 72.7431 44.7904 63.5882 50.3822 56.2385L0.779257 16.5864C-1.07498 22.115 1.61357 39.2531 10.5139 46.9927C14.6653 50.603 18.4739 53.8521 21.8265 56.7123C25.6613 59.9841 28.9007 62.7477 31.374 64.9601V74.6349L4.10714 53.903C5.03419 60.8138 8.83084 76.3472 17.1749 83.2575C22.3778 87.5669 26.9701 90.8354 29.6203 92.7226C30.3703 93.2562 30.9651 93.6796 31.374 93.9841V105.041L13.2951 89.8378C12.368 99.0521 19.6948 117.355 29.4291 124.39C35.5939 128.846 46.0394 137.58 56.7846 146.565C67.371 155.418 78.2486 164.513 85.6106 170C92.9723 164.513 103.849 155.417 114.435 146.565C125.18 137.581 135.626 128.845 141.791 124.39C151.526 117.354 158.853 99.0516 157.925 89.8374L139.846 105.041V93.9836C141.701 92.6014 147.078 88.4551 153.753 82.927C161.904 76.1765 163.862 61.5139 164.812 54.3966L164.878 53.9026L139.846 74.634V64.9596C142.32 62.7472 145.558 59.9841 149.393 56.7123L149.399 56.7071C152.75 53.8479 156.558 50.6002 160.706 46.9922C169.607 39.2522 172.296 22.1141 170.441 16.5858L120.835 56.2399ZM85.6092 116.097C104.042 116.097 118.985 101.246 118.985 82.9266C118.985 64.607 104.042 49.7563 85.6092 49.7563C67.176 49.7563 52.2327 64.607 52.2327 82.9266C52.2327 101.246 67.176 116.097 85.6092 116.097Z" fill="#1F2326"/>
</svg>
