<svg width="181" height="156" viewBox="0 0 181 156" fill="none" xmlns="http://www.w3.org/2000/svg">
<path fill-rule="evenodd" clip-rule="evenodd" d="M13.9477 77.6406L90.7968 156L167.646 77.6406C185.201 59.7402 185.033 31.4314 167.265 13.7326C148.884 -4.57752 118.724 -4.57752 100.342 13.7326L90.7968 23.2411L81.2513 13.7326C62.8698 -4.57752 32.7098 -4.57752 14.3286 13.7326C-3.43897 31.4314 -3.6077 59.7402 13.9477 77.6406ZM128.842 69.3092C118.246 68.7962 109.262 64.781 101.892 57.2629C94.5223 49.7454 90.8371 40.7778 90.8371 30.3608C90.8371 40.7778 87.1389 49.7454 79.7423 57.2629C72.3458 64.781 63.3495 68.7962 52.7533 69.3092C59.7299 69.6172 66.1297 71.5545 71.9527 75.121C77.7751 78.6875 82.3783 83.4082 85.7616 89.2842C89.1454 95.1597 90.8371 101.536 90.8371 108.412C90.8371 97.9437 94.5223 88.9377 101.892 81.3944C109.262 73.8507 118.246 69.8226 128.842 69.3092Z" fill="#1F2326"/>
</svg>
