<svg width="44" height="57" viewBox="0 0 44 57" fill="none" xmlns="http://www.w3.org/2000/svg">
<path fill-rule="evenodd" clip-rule="evenodd" d="M23.3316 41.3429L29.977 46.6167C30.3711 46.9295 30.6005 47.4029 30.6005 47.9036V57L22.2938 50.4076L13.9871 57V47.9036C13.9871 47.4029 14.2165 46.9295 14.6105 46.6167L21.256 41.3429C21.8626 40.8614 22.7249 40.8614 23.3316 41.3429ZM23.4052 21.7346L38.3572 35.084C38.7074 35.3965 38.9072 35.8418 38.9072 36.309V45.4635L23.4052 31.623C22.7734 31.059 21.8142 31.059 21.1824 31.623L5.68041 45.4635V36.309C5.68041 35.8418 5.88023 35.3965 6.23043 35.084L21.1824 21.7346C21.8142 21.1704 22.7734 21.1704 23.4052 21.7346ZM23.4685 0.482707L42.9181 19.7769C43.5412 20.3951 43.8912 21.2334 43.8912 22.1076V33.9269L37.2459 28.9828V24.7212C37.2459 24.2841 37.0708 23.8648 36.7593 23.5557L23.4685 10.3711C22.8198 9.72752 21.7678 9.72752 21.1191 10.3711L7.82832 23.5557C7.51683 23.8648 7.34166 24.2841 7.34166 24.7212V28.9828L0.696365 33.9269V22.1076C0.696365 21.2334 1.0464 20.3951 1.66953 19.7769L21.1191 0.482707C21.7678 -0.160902 22.8198 -0.160902 23.4685 0.482707Z" fill="#F8F8F8"/>
</svg>
