<svg width="59" height="45" viewBox="0 0 59 45" fill="none" xmlns="http://www.w3.org/2000/svg">
<path fill-rule="evenodd" clip-rule="evenodd" d="M35.5513 11.25C34.4267 15.5358 31.6148 17.6786 27.1159 17.6786H0.122345C1.24707 14.4643 2.93418 12.8571 5.18356 12.8571H25.4287C23.1793 10.7143 20.9299 9.64286 18.6804 9.64286H10.2449C11.3185 7.59745 13.4169 6.52821 16.5402 6.43516L17.6388 6.41973C22.4732 6.28602 27.0441 4.6162 25.4287 0H33.8642L57.8492 21.325C58.5304 21.9307 58.5672 22.9478 57.9315 23.5966C57.905 23.6236 57.8777 23.6497 57.8492 23.675L33.8642 45H25.4287C27.1159 40.1786 22.0547 38.5714 16.9933 38.5714C13.7725 38.5714 11.5765 37.5952 10.4052 35.6427L10.2449 35.3571H18.6804C20.7975 35.3571 22.9146 34.4081 25.0319 32.5099L25.4287 32.1429H5.18356C3.03198 32.1429 1.39484 30.6725 0.272231 27.7316L0.122345 27.3214H27.1159C31.4648 27.3214 34.2373 29.3238 35.4333 33.3286L35.5513 33.75L47.3611 22.5L35.5513 11.25Z" fill="#F8F8F8"/>
</svg>
