<svg width="62" height="53" viewBox="0 0 62 53" fill="none" xmlns="http://www.w3.org/2000/svg">
<path fill-rule="evenodd" clip-rule="evenodd" d="M56.068 46.375V53H5.84138V46.375H56.068ZM28.1105 6.79394L24.8977 12.6021C17.7021 15.0802 12.5383 21.8497 12.5383 29.8125C12.5383 35.0337 14.7584 39.7419 18.3157 43.0637L11.7182 43.0645C9.06928 39.3083 7.5156 34.7398 7.5156 29.8125C7.5156 17.9587 16.5068 8.18254 28.1105 6.79394ZM33.8005 6.7941C45.4034 8.18353 54.3938 17.9594 54.3938 29.8125C54.3938 34.7398 52.8401 39.3083 50.1911 43.0645L43.5932 43.064C47.1507 39.7422 49.3711 35.0338 49.3711 29.8125C49.3711 21.8509 44.2088 15.0821 37.015 12.6032L33.8005 6.7941ZM30.9547 0C47.5983 0 61.0906 13.3476 61.0906 29.8125C61.0906 34.5724 59.963 39.0716 57.9577 43.0633L54.1579 43.0637C56.4375 39.1655 57.7422 34.6398 57.7422 29.8125C57.7422 15.1769 45.7491 3.3125 30.9547 3.3125C16.1603 3.3125 4.16716 15.1769 4.16716 29.8125C4.16716 34.6398 5.47188 39.1655 7.7515 43.0637L3.95166 43.0633C1.94631 39.0716 0.818726 34.5724 0.818726 29.8125C0.818726 13.3476 14.3111 0 30.9547 0ZM30.9547 6.625L41 26.5C37.6516 25.3958 35.4193 25.3958 34.3031 26.5C33.1869 27.6042 32.0709 32.0208 30.9547 39.75C29.8385 32.0208 28.7224 27.6042 27.6062 26.5C26.49 25.3958 24.2578 25.3958 20.9094 26.5L30.9547 6.625Z" fill="#F8F8F8"/>
</svg>
