<svg width="54" height="58" viewBox="0 0 54 58" fill="none" xmlns="http://www.w3.org/2000/svg">
<path fill-rule="evenodd" clip-rule="evenodd" d="M27.2364 0L27.4834 0.581669C30.0127 6.6983 31.7526 15.9263 32.7026 28.2655L32.7894 29.4315L28.8278 34.3385V36.4377C29.8029 36.4377 32.7894 38.4726 32.7894 41.6087C32.7894 44.6083 30.8189 46.0991 30.1025 46.223L30.0129 46.2314V56.6235C30.0129 57.4174 29.2066 57.8701 27.5942 57.9814L27.2364 58C25.3854 57.933 24.4599 57.4741 24.4599 56.6235V46.2314C23.8372 46.2314 21.6835 44.7447 21.6835 41.6087C21.6835 38.4726 24.6699 36.4377 25.6451 36.4377V34.3385L21.6835 29.4315C22.6414 16.1022 24.4924 6.29159 27.2364 0ZM0.637761 8.96575L1.04066 9.35101C4.81252 13.0347 8.90722 19.1955 13.3247 27.8333L13.7993 28.7682L12.2175 33.5639L12.8502 35.0974C13.6035 34.7993 16.5245 35.3728 17.4697 37.6638C18.415 39.9546 17.199 41.6992 16.7179 41.8895C18.9139 47.2118 20.14 50.1837 20.3965 50.8052C20.6346 51.382 20.1542 51.9562 18.9554 52.5276L18.6661 52.6593C17.2157 53.1762 16.3623 53.124 16.1058 52.5025L12.4273 43.587C11.9462 43.7773 9.83396 43.3496 8.88859 41.0587C7.9434 38.7677 9.63768 36.3685 10.391 36.0704L9.75818 34.5367L5.21821 32.1631C1.9408 22.1332 0.413957 14.4007 0.637761 8.96575ZM53.835 8.96575C54.0588 14.4007 52.5321 22.1332 49.2546 32.1631L44.7146 34.5367L44.0818 36.0704C44.8351 36.3685 46.5294 38.7677 45.5842 41.0587C44.6388 43.3496 42.5266 43.7773 42.0455 43.587L38.367 52.5025C38.1105 53.124 37.2571 53.1762 35.8067 52.6593L35.5174 52.5276C34.3186 51.9562 33.8384 51.382 34.0763 50.8052C34.3328 50.1837 35.5589 47.2118 37.7549 41.8895C37.2738 41.6992 36.0578 39.9546 37.0031 37.6638C37.9483 35.3728 40.8693 34.7993 41.6226 35.0974L42.2553 33.5639L40.6735 28.7682L41.1481 27.8333C45.5656 19.1955 49.6603 13.0347 53.4322 9.35101L53.835 8.96575ZM27.2364 38.9688C25.7029 38.9688 24.4599 40.1861 24.4599 41.6876C24.4599 43.1891 25.7029 44.4064 27.2364 44.4064C28.7699 44.4064 30.0129 43.1891 30.0129 41.6876C30.0129 40.1861 28.7699 38.9688 27.2364 38.9688ZM12.3835 37.4328C11.1987 37.9016 10.6051 39.1707 11.0578 40.2676C11.5103 41.3645 12.8376 41.8737 14.0224 41.405C15.2073 40.9362 15.8008 39.6671 15.3482 38.5702C14.8957 37.4733 13.5682 36.9641 12.3835 37.4328ZM42.0894 37.4328C40.9046 36.9641 39.5771 37.4733 39.1246 38.5702C38.672 39.6671 39.2655 40.9362 40.4504 41.405C41.6352 41.8737 42.9625 41.3645 43.415 40.2676C43.8678 39.1707 43.2741 37.9016 42.0894 37.4328Z" fill="#F8F8F8"/>
</svg>
