<svg width="54" height="72" viewBox="0 0 54 72" fill="none" xmlns="http://www.w3.org/2000/svg">
<path fill-rule="evenodd" clip-rule="evenodd" d="M49.6523 0L39.7268 19.5112C42.9602 22.5578 44.9759 26.8632 44.9759 31.6355C44.9759 32.6713 44.8809 33.6852 44.6992 34.6688L53.8459 41.997L42.9606 39.5701C40.5103 44.0695 36.0409 47.3288 30.7563 48.1536L28.1136 72L25.935 48.2195C24.3606 48.0181 22.8544 47.6013 21.4471 47.0001L15.3449 51.0776L18.0108 45.0254C14.0774 42.102 11.4746 37.5139 11.2648 32.3153L0.605713 28.2009L11.9029 27.0165C12.5839 24.6613 13.7729 22.5191 15.3445 20.7136L15.3449 16.5244L20.3906 16.7665C21.7936 16.0484 23.3114 15.5198 24.9094 15.2149H24.7412L27.3306 1.53565L29.8823 15.0042C31.8443 15.207 33.7062 15.7434 35.4095 16.5553L49.6523 0ZM28.1136 23.8318C23.7675 23.8318 20.2445 27.3257 20.2445 31.6355C20.2445 35.9454 23.7675 39.4393 28.1136 39.4393C32.4595 39.4393 35.9827 35.9454 35.9827 31.6355C35.9827 27.3257 32.4595 23.8318 28.1136 23.8318Z" fill="#F8F8F8"/>
</svg>
