<svg width="58" height="55" viewBox="0 0 58 55" fill="none" xmlns="http://www.w3.org/2000/svg">
<path fill-rule="evenodd" clip-rule="evenodd" d="M11.922 36.6667C16.199 43.5152 21.0106 46.9393 26.3568 46.9393V55L24.7529 49.3575C19.9414 48.5515 14.3277 46.9393 9.51616 38.0727L11.922 36.6667ZM45.8439 36.6667L48.2497 38.0727C43.4382 46.9393 37.8245 48.5515 33.0129 49.3575L31.409 55V46.9393C36.7553 46.9393 41.5668 43.5152 45.8439 36.6667ZM28.8829 5L35.6192 18.3333H32.2511L28.8829 40L25.5148 18.3333H22.1467L28.8829 5ZM22.1467 20L23.8307 28.3333H12.0423L17.5832 29.933C10.4284 32.0512 4.6519 34.8512 0.253784 38.3333C2.82645 34.7688 5.75277 31.5543 9.03283 28.69L1.93785 21.6667L3.39322 22.3868C6.92774 24.1358 9.68254 25.499 11.6576 26.4763L11.7006 26.4977C14.8843 24.0365 18.3663 21.8707 22.1467 20ZM35.6192 20C44.6008 24.4445 51.8986 30.5555 57.5121 38.3333C53.114 34.8512 47.3375 32.0512 40.1827 29.933L45.7236 28.3333H33.9351L35.6192 20ZM23.8307 0V10L18.7785 18.3333H13.7263L18.7785 10L23.8307 0ZM33.9351 0L38.9873 10L44.0395 18.3333H38.9873L33.9351 10V0Z" fill="#F8F8F8"/>
</svg>
