<svg width="37" height="65" viewBox="0 0 37 65" fill="none" xmlns="http://www.w3.org/2000/svg">
<path fill-rule="evenodd" clip-rule="evenodd" d="M15.0845 0C12.7996 8.4565 9.74034 24.4144 17.4496 27.6382C22.5893 29.7876 23.5984 23.9053 20.4776 9.99184C25.5985 17.3133 27.7998 24.3754 27.0819 31.1782C28.0338 31.7211 28.9329 32.349 29.7677 33.0512C30.9965 32.3138 31.6107 30.901 31.6107 28.8149C32.9403 31.2424 33.2664 33.6461 32.5886 36.0259C34.869 39.0531 36.222 42.8222 36.222 46.9074C36.222 56.8997 28.1266 65 18.1405 65C8.1543 65 0.0588989 56.8997 0.0588989 46.9074C0.0588989 44.0276 0.731343 41.305 1.92777 38.888C0.751709 36.1612 1.06404 32.4107 2.86554 27.6382C2.86554 31.9353 3.6775 32.9691 4.63639 33.5771C4.90647 33.7482 5.22851 33.8472 5.60252 33.8738C6.14649 33.3471 6.72205 32.8579 7.32693 32.4056C6.37793 19.9418 8.96341 9.13938 15.0845 0ZM18.1405 38.3374C13.4101 38.3374 9.57552 42.1743 9.57552 46.9074C9.57552 50.5931 11.9006 53.7353 15.1633 54.9456C15.4777 51.9813 16.7103 49.9449 18.8618 48.833C18.8618 51.2085 18.5512 53.6261 20.1753 55.2334C23.9252 54.3182 26.7054 50.9376 26.7054 46.9074C26.7054 42.1743 22.8708 38.3374 18.1405 38.3374Z" fill="#F8F8F8"/>
</svg>
