<svg width="59" height="43" viewBox="0 0 59 43" fill="none" xmlns="http://www.w3.org/2000/svg">
<path fill-rule="evenodd" clip-rule="evenodd" d="M38.896 0C48.5565 1.52547 54.123 13.2564 54.4563 17.2683C55.5722 16.0123 55.9314 13.937 55.5339 11.0427C57.5816 12.7653 58.175 13.8955 58.2148 17.9993L58.217 18.4676L58.219 43C54.8305 41.7592 50.593 40.742 45.779 40.0315L45.7783 12.8506C45.7783 8.43299 42.238 2.44567 38.896 0ZM0.961889 10.7853C6.85022 22.7594 10.9624 29.7233 13.298 31.6767L13.2973 40.0413C8.52822 40.7487 4.32748 41.7573 0.960693 42.9862L0.961889 10.7853ZM30.634 0.389409C29.3185 4.94104 28.6102 9.6148 28.5092 14.4107L28.4964 15.6123L28.4969 38.9073C23.9519 38.9465 19.6106 39.2341 15.6133 39.727L15.6139 12.4655C15.6139 8.01744 13.8441 4.93915 11.7089 2.55437C14.3123 3.38324 16.233 4.9548 17.4715 7.26924C19.3288 10.7409 18.2061 19.835 21.6402 19.835C25.0744 19.835 25.0776 14.2027 25.4678 9.92904C25.7279 7.07986 27.4501 3.9001 30.634 0.389409ZM33.8062 7.32256C33.7537 14.0466 34.7293 17.4086 36.7327 17.4086C38.7362 17.4086 39.3051 14.351 38.4398 8.23536C41.0821 11.362 42.4032 14.0679 42.4032 16.3529L42.4038 39.5947C38.8731 39.1997 35.092 38.9628 31.1532 38.9126V15.4907C31.1532 11.8776 32.0375 9.15487 33.8062 7.32256ZM5.66421 3.16618C9.3588 5.30706 11.4725 7.72366 12.0053 10.4163L12.0681 10.7853L8.07605 18.9191C8.51037 14.5591 7.70639 9.30812 5.66421 3.16618Z" fill="#F8F8F8"/>
</svg>
