<svg width="48" height="59" viewBox="0 0 48 59" fill="none" xmlns="http://www.w3.org/2000/svg">
<path fill-rule="evenodd" clip-rule="evenodd" d="M24.881 0C24.881 2.49852 24.91 4.41858 23.6984 6.71584L23.8588 6.71404C36.8962 6.71404 47.4652 17.3342 47.4652 30.435C47.4652 38.2908 43.6648 45.2548 37.8105 49.5716C35.8961 51.4224 31.5089 54.5657 24.6479 59C25.079 57.1312 24.8479 55.5159 23.9546 54.1538L23.8588 54.1559C10.8213 54.1559 0.252258 43.5356 0.252258 30.435C0.252258 21.2562 5.44031 13.2953 13.0305 9.35117C19.1873 5.0701 23.1369 1.95293 24.881 0ZM23.8588 16.9435C16.4087 16.9435 10.3694 23.0121 10.3694 30.4982C10.3694 31.9083 10.5836 33.268 10.9812 34.5463C15.0195 37.4345 22.8691 35.7183 23.6326 27.1097C25.4114 34.0253 24.1695 40.947 15.6019 41.2176C17.8827 42.9949 20.7477 44.0532 23.8588 44.0532C31.3088 44.0532 37.3482 37.9844 37.3482 30.4982C37.3482 23.0121 31.3088 16.9435 23.8588 16.9435Z" fill="#F8F8F8"/>
</svg>
