<svg width="69" height="23" viewBox="0 0 69 23" fill="none" xmlns="http://www.w3.org/2000/svg">
<path d="M57.5741 0C63.6917 0 68.6511 4.90902 68.6511 10.9648C68.6511 17.0205 63.6917 21.9295 57.5741 21.9295C52.086 21.9295 47.53 17.9788 46.6505 12.7938L44.6508 12.7923V13.8628C44.6508 14.3474 44.4565 14.8122 44.1102 15.1549L36.7254 22.4648C36.0045 23.1784 34.8356 23.1784 34.1146 22.4648L26.73 15.1549C26.3838 14.8122 26.1892 14.3474 26.1892 13.8628V12.7923L22.3435 12.7938C21.4639 17.9788 16.9079 21.9295 11.4199 21.9295C5.30223 21.9295 0.342896 17.0205 0.342896 10.9648C0.342896 4.90902 5.30223 0 11.4199 0C16.9086 0 21.4651 3.95173 22.3438 9.13757L26.1892 9.13724V1.97488C26.1892 0.965508 27.0158 0.147365 28.0353 0.147365C28.4546 0.147365 28.8614 0.288487 29.1886 0.54773L34.2668 4.56912C34.941 5.10304 35.8991 5.10304 36.5734 4.56912L41.6514 0.54773C42.4476 -0.0826345 43.6094 0.0450147 44.2463 0.833258C44.5082 1.15723 44.6508 1.55989 44.6508 1.97488V9.13724L46.6501 9.13757C47.5289 3.95173 52.0854 0 57.5741 0ZM11.4199 5.48238C8.36107 5.48238 5.8814 7.93697 5.8814 10.9648C5.8814 13.9925 8.36107 16.4471 11.4199 16.4471C13.8308 16.4471 15.8819 14.9224 16.6427 12.7939L11.4199 12.7923C10.4003 12.7923 9.57374 11.974 9.57374 10.9648C9.57374 9.95555 10.4003 9.13724 11.4199 9.13724L16.6433 9.13741C15.883 7.0081 13.8315 5.48238 11.4199 5.48238ZM57.5741 5.48238C55.1625 5.48238 53.1109 7.0081 52.3506 9.13741L57.5741 9.13724C58.5937 9.13724 59.4202 9.95555 59.4202 10.9648C59.4202 11.974 58.5937 12.7923 57.5741 12.7923L52.3513 12.7939C53.1121 14.9224 55.1631 16.4471 57.5741 16.4471C60.6328 16.4471 63.1126 13.9925 63.1126 10.9648C63.1126 7.93697 60.6328 5.48238 57.5741 5.48238Z" fill="#F8F8F8"/>
</svg>
