<svg width="70" height="51" viewBox="0 0 70 51" fill="none" xmlns="http://www.w3.org/2000/svg">
<path fill-rule="evenodd" clip-rule="evenodd" d="M14.9395 0.0300327C12.4425 14.5257 15.3057 35.4945 33.166 51C24.5608 50.5963 17.6931 49.4018 12.563 47.4166C15.6961 45.42 17.2626 44.4219 17.2626 44.4219C-0.844609 32.5954 -0.684036 17.7607 1.35911 13.9241C3.30389 18.0753 5.35318 20.5902 7.50698 21.4689C6.84517 12.2321 9.32262 5.08583 14.9395 0.0300327ZM55.2433 0C60.8601 5.0558 63.3374 12.202 62.6757 21.4389C64.8296 20.5604 66.8787 18.0453 68.8235 13.8943C70.8667 17.7306 71.0273 32.5654 52.9201 44.3919C52.9201 44.3919 54.4866 45.3902 57.6197 47.3866C52.4896 49.3718 45.6219 50.5663 37.0167 50.97C54.8771 35.4645 57.7402 14.4957 55.2433 0ZM46.5424 25.0605C47.4363 29.9374 42.431 35.306 35.0933 39.6421L35.0935 39.6434H35.0914C27.7538 35.306 22.7487 29.9374 23.6424 25.0605C24.5362 20.1828 32.6221 18.5434 35.0935 25.0605L35.0914 25.0584L35.2371 24.7002C37.8654 18.6065 45.6654 20.275 46.5424 25.0605ZM35.0914 9.43897C37.2181 9.43897 38.9421 11.1293 38.9421 13.2145C38.9421 15.2996 37.2181 16.99 35.0914 16.99C32.9646 16.99 31.2407 15.2996 31.2407 13.2145C31.2407 11.1293 32.9646 9.43897 35.0914 9.43897Z" fill="#F8F8F8"/>
</svg>
